/* XPM */
static char *exit_for_mr_crabs[] = {
/* columns rows colors chars-per-pixel */
"32 32 9 1",
"  c #7c4f26",
". c #FF0000",
"X c #FFC0CB",
"o c #FFFFFF",
"O c #FFFF00",
"+ c #FFA500",
"@ c #800000",
"# c #FFD700",
"$ c #8B0000",
/* pixels */
"                                ",
"          .........             ",
"        ..XXXXXXXXX..           ",
"       .XoXoXoXoXoXoX.          ",
"      .XoXoXoXoXoXoXoX.         ",
"     .XoXoXoXoXoXoXoXoX.        ",
"    .XoXoXoXoXoXoXoXoXoX.       ",
"   .XoXoXoXoXoXoXoXoXoXoX.      ",
"  .XoXoXoXoXoXoXoXoXoXoXoX.     ",
"   .XoXoXoXoXoXoXoXoXoXoX.      ",
"    .XoXoXoXoXoXoXoXoXoX.       ",
"     .XoXoXoXoXoXoXoXoX.        ",
"      .XoXoXoXoXoXoXoX.         ",
"       .XoXoXoXoXoXoX.          ",
"        ..XXXXXXXXX..           ",
"          .........             ",
"                                ",
"             OOOO               ",
"            OOOOOO              ",
"           OO++++OO             ",
"          OO++++++OO            ",
"         OO++++++++OO           ",
"        OO++++++++++OO          ",
"       OO++++++++++++OO         ",
"        OO++++++++++OO          ",
"         OO++++++++OO           ",
"          OO++++++OO            ",
"           OO++++OO             ",
"            OOOOOO              ",
"             OOOO               ",
"                                ",
"                                "
};