/* XPM */
static char * spongebob_blink[] = {
"32 32 13 1",
"  c #7c4f26",
"Y c #F4D03F",
"y c #D4AC0D",
"B c #000000",
"W c #FFFFFF",
"b c #3498DB",
"R c #E74C3C",
"P c #6E2C00",
"S c #ECF0F1",
"s c #8E44AD",
"u c #154360",
"t c #A0522D",
"g c #95A5A6",
"                                ",
"                                ",
"                                ",
"                                ",
"                                ",
"                                ",
"       BBBBBBBBBBBBBBBBBB       ",
"       BYYYYYYYYYYYYYYYYB       ",
"       BYYYYYYYYYYYyYYYYB       ",
"       BYYyYYYYYYYYYYYYYB       ",
"       BYYYYYYYYYYYYYYYYB       ",
"       BYYBBBBBYYBBBBBYYB       ",
"       BYYYYYYYYyYYYYYYYB       ",
"       BYYYYYRYYYYRYYYYYB       ",
"       BYYYYYRRRRRRYYYYYB       ",
"       BYYYYyYYSYSYYYYYYB       ",
"       WWWWWWWWRRWWWWWWWW       ",
"       PPPPPBPPRRPPBPPPPP       ",
"     YYYPPPPBPPRRPPBPPPPYYY     ",
"       PPPPPBPPRRPPBPPPPP       ",
"       BYYYYBYYYYYYBYYYYB       ",
"       BYYYYsYYYYYYsYYYYB       ",
"       BBBBBBBBBBBBBBBBBB       ",
"                                ",
"                                ",
"                                ",
"                                ",
"                                ",
"                                ",
"                                ",
"                                ",
"                                "
};